<svg width="333" height="31" viewBox="0 0 333 31" fill="none" xmlns="http://www.w3.org/2000/svg">
<g clip-path="url(#clip0)">
<path d="M66.405 18.752L66.981 22.56H67.141L67.781 18.72L72.069 5.6H76.677L68.357 28.16H65.221L56.837 5.6H61.925L66.405 18.752ZM78.743 5.6H83.127V28H78.743V5.6ZM92.988 16.32L91.228 12.8H91.068L91.58 16.32V28H87.42V5.44H90.62L99.1 17.376L100.796 20.8H100.956L100.444 17.376V5.6H104.604V28.16H101.404L92.988 16.32ZM118.115 21.984C118.115 21.3013 117.859 20.7467 117.347 20.32C116.857 19.8933 116.227 19.5093 115.459 19.168C114.713 18.8053 113.891 18.4427 112.995 18.08C112.121 17.696 111.299 17.2373 110.531 16.704C109.785 16.1493 109.155 15.4667 108.643 14.656C108.153 13.8453 107.907 12.8107 107.907 11.552C107.907 10.464 108.089 9.52533 108.451 8.736C108.814 7.92533 109.326 7.25333 109.987 6.72C110.67 6.18667 111.47 5.792 112.387 5.536C113.305 5.28 114.329 5.152 115.459 5.152C116.761 5.152 117.987 5.26933 119.139 5.504C120.291 5.71733 121.241 6.03733 121.987 6.464L120.611 10.144C120.142 9.84533 119.438 9.57867 118.499 9.344C117.561 9.088 116.547 8.96 115.459 8.96C114.435 8.96 113.646 9.16267 113.091 9.568C112.558 9.97333 112.291 10.5173 112.291 11.2C112.291 11.84 112.537 12.3733 113.027 12.8C113.539 13.2267 114.169 13.6213 114.915 13.984C115.683 14.3467 116.505 14.72 117.379 15.104C118.275 15.488 119.097 15.9573 119.843 16.512C120.611 17.0453 121.241 17.7173 121.731 18.528C122.243 19.3173 122.499 20.3093 122.499 21.504C122.499 22.6987 122.297 23.7333 121.891 24.608C121.507 25.4613 120.953 26.176 120.227 26.752C119.523 27.328 118.659 27.7547 117.635 28.032C116.633 28.3093 115.523 28.448 114.307 28.448C112.707 28.448 111.299 28.2987 110.083 28C108.867 27.7013 107.971 27.4027 107.395 27.104L108.803 23.36C109.038 23.488 109.337 23.6267 109.699 23.776C110.083 23.9253 110.51 24.064 110.979 24.192C111.449 24.32 111.939 24.4267 112.451 24.512C112.985 24.5973 113.529 24.64 114.083 24.64C115.385 24.64 116.377 24.4267 117.059 24C117.763 23.552 118.115 22.88 118.115 21.984ZM125.42 5.6H138.7V9.504H129.804V14.72H137.9V18.624H129.804V24.096H138.86V28H125.42V5.6ZM147.707 16.32L145.947 12.8H145.787L146.299 16.32V28H142.139V5.44H145.339L153.819 17.376L155.515 20.8H155.675L155.163 17.376V5.6H159.323V28.16H156.123L147.707 16.32ZM179.074 9.504H172.546V28H168.162V9.504H161.602V5.6H179.074V9.504ZM192.985 20.384L193.529 22.848H193.689L194.137 20.32L196.857 12H201.337L194.649 28.16H192.121L185.177 12H190.009L192.985 20.384ZM202.603 12.928C203.456 12.544 204.47 12.2453 205.643 12.032C206.816 11.7973 208.043 11.68 209.323 11.68C210.432 11.68 211.36 11.8187 212.107 12.096C212.854 12.352 213.44 12.7253 213.867 13.216C214.315 13.7067 214.624 14.2933 214.795 14.976C214.987 15.6587 215.083 16.4267 215.083 17.28C215.083 18.2187 215.051 19.168 214.987 20.128C214.923 21.0667 214.88 21.9947 214.859 22.912C214.859 23.8293 214.891 24.7253 214.955 25.6C215.019 26.4533 215.179 27.264 215.435 28.032H212.043L211.371 25.824H211.211C210.784 26.4853 210.187 27.0613 209.419 27.552C208.672 28.0213 207.702 28.256 206.507 28.256C205.76 28.256 205.088 28.1493 204.491 27.936C203.894 27.7013 203.382 27.3813 202.955 26.976C202.528 26.5493 202.198 26.0587 201.963 25.504C201.728 24.928 201.611 24.288 201.611 23.584C201.611 22.6027 201.824 21.7813 202.251 21.12C202.699 20.4373 203.328 19.8933 204.139 19.488C204.971 19.0613 205.952 18.7733 207.083 18.624C208.235 18.4533 209.515 18.4 210.923 18.464C211.072 17.2693 210.987 16.416 210.667 15.904C210.347 15.3707 209.632 15.104 208.523 15.104C207.691 15.104 206.806 15.1893 205.867 15.36C204.95 15.5307 204.192 15.7547 203.595 16.032L202.603 12.928ZM207.883 24.832C208.715 24.832 209.376 24.6507 209.867 24.288C210.358 23.904 210.72 23.4987 210.955 23.072V20.992C210.294 20.928 209.654 20.9173 209.035 20.96C208.438 21.0027 207.904 21.0987 207.435 21.248C206.966 21.3973 206.592 21.6107 206.315 21.888C206.038 22.1653 205.899 22.5173 205.899 22.944C205.899 23.5413 206.07 24.0107 206.411 24.352C206.774 24.672 207.264 24.832 207.883 24.832ZM228.366 28V18.912C228.366 17.6107 228.174 16.672 227.79 16.096C227.427 15.52 226.798 15.232 225.902 15.232C225.113 15.232 224.441 15.4667 223.886 15.936C223.353 16.384 222.969 16.9493 222.734 17.632V28H218.574V12H221.87L222.35 14.112H222.478C222.969 13.4293 223.619 12.832 224.43 12.32C225.241 11.808 226.286 11.552 227.566 11.552C228.355 11.552 229.059 11.6587 229.678 11.872C230.297 12.0853 230.819 12.4373 231.246 12.928C231.673 13.4187 231.993 14.0907 232.206 14.944C232.419 15.776 232.526 16.8107 232.526 18.048V28H228.366ZM251.699 16.32H260.051V26.304C259.155 27.0507 258.078 27.5947 256.819 27.936C255.582 28.2773 254.355 28.448 253.139 28.448C251.71 28.448 250.376 28.224 249.139 27.776C247.923 27.328 246.867 26.6347 245.971 25.696C245.075 24.736 244.371 23.52 243.859 22.048C243.347 20.576 243.091 18.8267 243.091 16.8C243.091 14.688 243.39 12.896 243.987 11.424C244.606 9.93067 245.406 8.72533 246.387 7.808C247.39 6.86933 248.51 6.19733 249.747 5.792C250.984 5.36533 252.243 5.152 253.523 5.152C254.803 5.152 255.923 5.248 256.883 5.44C257.864 5.632 258.643 5.83467 259.219 6.048L258.323 9.728C257.79 9.51467 257.192 9.35467 256.531 9.248C255.87 9.12 255.027 9.056 254.003 9.056C253.086 9.056 252.243 9.19467 251.475 9.472C250.707 9.74933 250.035 10.208 249.459 10.848C248.904 11.4667 248.467 12.2667 248.147 13.248C247.848 14.2293 247.699 15.424 247.699 16.832C247.699 18.176 247.848 19.3387 248.147 20.32C248.446 21.28 248.862 22.08 249.395 22.72C249.928 23.3387 250.547 23.7973 251.251 24.096C251.976 24.3947 252.744 24.544 253.555 24.544C254.11 24.544 254.654 24.48 255.187 24.352C255.72 24.2027 256.168 23.9893 256.531 23.712V19.488L251.699 18.976V16.32ZM262.591 16.8C262.591 13.0667 263.412 10.1973 265.055 8.192C266.698 6.16533 269.044 5.152 272.095 5.152C273.695 5.152 275.092 5.42933 276.287 5.984C277.482 6.53867 278.474 7.328 279.263 8.352C280.052 9.376 280.639 10.6027 281.023 12.032C281.407 13.4613 281.599 15.0507 281.599 16.8C281.599 20.5333 280.767 23.4133 279.103 25.44C277.46 27.4453 275.124 28.448 272.095 28.448C270.474 28.448 269.066 28.1707 267.871 27.616C266.676 27.0613 265.684 26.272 264.895 25.248C264.127 24.224 263.551 22.9973 263.167 21.568C262.783 20.1387 262.591 18.5493 262.591 16.8ZM267.199 16.8C267.199 17.9307 267.295 18.976 267.487 19.936C267.679 20.8747 267.967 21.6853 268.351 22.368C268.756 23.0507 269.268 23.584 269.887 23.968C270.506 24.352 271.242 24.544 272.095 24.544C273.652 24.544 274.858 23.936 275.711 22.72C276.564 21.504 276.991 19.5307 276.991 16.8C276.991 15.712 276.895 14.6987 276.703 13.76C276.532 12.8213 276.255 12 275.871 11.296C275.487 10.592 274.986 10.048 274.367 9.664C273.748 9.25867 272.991 9.056 272.095 9.056C270.538 9.056 269.332 9.68533 268.479 10.944C267.626 12.1813 267.199 14.1333 267.199 16.8ZM292.637 16.32H300.989V26.304C300.093 27.0507 299.015 27.5947 297.757 27.936C296.519 28.2773 295.293 28.448 294.077 28.448C292.647 28.448 291.314 28.224 290.077 27.776C288.861 27.328 287.805 26.6347 286.909 25.696C286.013 24.736 285.309 23.52 284.797 22.048C284.285 20.576 284.029 18.8267 284.029 16.8C284.029 14.688 284.327 12.896 284.924 11.424C285.543 9.93067 286.343 8.72533 287.325 7.808C288.327 6.86933 289.447 6.19733 290.685 5.792C291.922 5.36533 293.181 5.152 294.461 5.152C295.741 5.152 296.861 5.248 297.821 5.44C298.802 5.632 299.581 5.83467 300.157 6.048L299.26 9.728C298.727 9.51467 298.13 9.35467 297.469 9.248C296.807 9.12 295.965 9.056 294.941 9.056C294.023 9.056 293.181 9.19467 292.413 9.472C291.645 9.74933 290.973 10.208 290.397 10.848C289.842 11.4667 289.405 12.2667 289.085 13.248C288.786 14.2293 288.637 15.424 288.637 16.832C288.637 18.176 288.786 19.3387 289.085 20.32C289.383 21.28 289.799 22.08 290.333 22.72C290.866 23.3387 291.485 23.7973 292.189 24.096C292.914 24.3947 293.682 24.544 294.493 24.544C295.047 24.544 295.591 24.48 296.125 24.352C296.658 24.2027 297.106 23.9893 297.469 23.712V19.488L292.637 18.976V16.32ZM316.809 18.624H308.617V28H304.233V5.6H308.617V14.72H316.809V5.6H321.193V28H316.809V18.624Z" fill="black"/>
<rect x="1" y="-1" width="21" height="21" transform="matrix(1 0 0 -1 19 26)" fill="#E95A14" stroke="black" stroke-width="2"/>
</g>
<defs>
<clipPath id="clip0">
<rect width="333" height="31" fill="white" transform="matrix(1 0 0 -1 0 31)"/>
</clipPath>
</defs>
</svg>
